<svg xmlns="http://www.w3.org/2000/svg" viewBox="0 0 220.55 57.2"><title>Cesi_Logo_endossement_LINEACT_quadri</title><polygon points="167.61 11.48 163.31 11.48 163.31 57.2 209.02 57.2 209.02 52.9 167.61 52.9 167.61 11.48" style="fill:#1a171b"/><polygon points="183.45 0 183.45 11.47 209.02 11.47 209.02 36.95 220.55 36.95 220.55 0 183.45 0" style="fill:#1a171b"/><path d="M178.17,38.16c-1.93,0-3.83-1.18-3.83-4.4s1.9-4.38,3.83-4.38a3.55,3.55,0,0,1,2.83,1.2l-1.19,1.15a2,2,0,0,0-1.64-.81,1.93,1.93,0,0,0-1.59.76,3.17,3.17,0,0,0-.51,2.08,3.24,3.24,0,0,0,.51,2.1,1.93,1.93,0,0,0,1.59.76,2,2,0,0,0,1.64-.81L181,36.94A3.54,3.54,0,0,1,178.17,38.16Z" transform="translate(-0.12 -1.07)" style="fill:#1a171b"/><path d="M184,34.27a2.1,2.1,0,0,0,2.18,2.4,2.56,2.56,0,0,0,2.08-.88l1.1,1a4,4,0,0,1-3.22,1.34c-2.14,0-3.85-1.13-3.85-4.4,0-2.77,1.43-4.38,3.63-4.38s3.64,1.69,3.64,4.13v.76Zm3.61-2.37a1.75,1.75,0,0,0-1.69-1.08,1.8,1.8,0,0,0-1.71,1.08,2.63,2.63,0,0,0-.21,1.17h3.85A2.5,2.5,0,0,0,187.57,31.9Z" transform="translate(-0.12 -1.07)" style="fill:#1a171b"/><path d="M194.58,38.16a4.74,4.74,0,0,1-3.6-1.23l1.13-1.14a3.32,3.32,0,0,0,2.47.9c1,0,1.88-.38,1.88-1.19,0-.57-.33-.94-1.15-1l-1.38-.12c-1.6-.13-2.53-.86-2.53-2.37,0-1.67,1.44-2.62,3.23-2.62a4.72,4.72,0,0,1,3.18,1l-1.08,1.1a3.27,3.27,0,0,0-2.12-.62c-1,0-1.55.45-1.55,1.1s.27.89,1.18,1l1.36.12c1.6.13,2.55.89,2.55,2.42C198.15,37.23,196.63,38.16,194.58,38.16Z" transform="translate(-0.12 -1.07)" style="fill:#1a171b"/><rect x="200.13" y="28.41" width="1.72" height="8.58" style="fill:#1a171b"/><path d="M3.88,42.58H15.54v3.2H.12V16H3.88Z" transform="translate(-0.12 -1.07)" style="fill:#1a171b"/><path d="M24.32,45.78H20.58V16h3.74Z" transform="translate(-0.12 -1.07)" style="fill:#1a171b"/><path d="M50.72,45.78H47L35.05,22.86V45.78H31.29V16h3.76l12,23V16h3.72Z" transform="translate(-0.12 -1.07)" style="fill:#1a171b"/><path d="M71.88,32H61.36V42.58H73.62v3.2h-16V16H73.41v3.2h-12v9.59H71.88Z" transform="translate(-0.12 -1.07)" style="fill:#1a171b"/><path d="M92.69,38H82.63l-2.3,7.78H76.48L86.07,16h3.2l9.61,29.74H95Zm-9.07-3.21h8.11L87.66,21.27Z" transform="translate(-0.12 -1.07)" style="fill:#1a171b"/><path d="M121.77,36.33q-.24,4.77-2.69,7.32a9.07,9.07,0,0,1-6.89,2.54,8.51,8.51,0,0,1-7.11-3.4q-2.64-3.4-2.64-9.22v-5.4c0-3.87.9-6.92,2.71-9.17a9,9,0,0,1,7.39-3.37,8.63,8.63,0,0,1,6.67,2.57q2.36,2.58,2.56,7.38H118q-.24-3.64-1.53-5.19a4.79,4.79,0,0,0-3.92-1.55,5.33,5.33,0,0,0-4.68,2.38c-1.09,1.58-1.64,3.91-1.64,7v5.46a13,13,0,0,0,1.52,6.92A4.94,4.94,0,0,0,112.19,43a5.37,5.37,0,0,0,4.21-1.45c.86-1,1.39-2.7,1.59-5.2Z" transform="translate(-0.12 -1.07)" style="fill:#1a171b"/><path d="M144.05,19.24h-7.82V45.78h-3.74V19.24h-7.81V16h19.37Z" transform="translate(-0.12 -1.07)" style="fill:#1a171b"/></svg>